<svg width="793" height="749" viewBox="0 0 793 749" fill="none" xmlns="http://www.w3.org/2000/svg">
<mask id="mask0_451_907" style="mask-type:luminance" maskUnits="userSpaceOnUse" x="0" y="0" width="793" height="749">
<path d="M0 0H793V748.942H0V0Z" fill="white"/>
</mask>
<g mask="url(#mask0_451_907)">
<mask id="mask1_451_907" style="mask-type:luminance" maskUnits="userSpaceOnUse" x="0" y="0" width="793" height="749">
<path d="M0 0H793V748.942H0V0Z" fill="white"/>
</mask>
<g mask="url(#mask1_451_907)">
<path fill-rule="evenodd" clip-rule="evenodd" d="M210.341 424.049L427.984 482.364L616.742 524.962L597.312 634.539L570.728 666.172L593.327 704.512C601.159 694.795 606.556 683.347 609.069 671.122L630.059 649.835L672.359 487.29L569.268 443.529C590.105 421.947 604.803 395.193 611.841 366.03L654.761 196.406C697.087 207.742 709.462 206.678 744.041 234.672C775.649 234.672 773.743 231.9 793 205.168C765.534 144.663 726.231 90.2704 677.409 45.1969C684.152 30.9733 688.341 15.6747 689.785 0C609.449 62.6983 538.275 136.322 478.33 218.732H212.693C185.621 218.007 159.146 226.762 137.843 243.484H107.151C54.2277 243.634 11.3622 286.499 11.2126 339.422V481.498C11.2223 497.143 7.37087 512.548 0 526.348C49.3377 521.709 87.0863 480.361 87.2256 430.806V289.423C87.3575 278.522 96.1268 269.698 107.027 269.498H115.987C107.056 285.732 102.517 304.016 102.819 322.541V457.885C102.858 482.527 94.5718 506.46 79.305 525.804L88.9829 748.991H133.536C132.975 737.901 129.027 727.249 122.225 718.472L130.022 538.922C167.344 509.254 195.227 469.366 210.267 424.123L210.341 424.049ZM211.901 525.729C223.504 505.099 227.033 480.895 221.801 457.81L217.247 435.088L314.101 461.053C304.578 490.663 287.778 517.411 265.241 538.848L293.532 718.398C301.875 726.882 307.849 737.405 310.859 748.917H266.305L211.901 525.729ZM490.087 550.877L459.345 717.878C465.105 727.14 467.541 738.087 466.251 748.917H421.697L436.549 595.456L441.251 494.493L500.656 507.908L489.889 551.001L490.087 550.877ZM693.671 95.4432C696.304 95.6388 698.751 96.8783 700.466 98.8863C702.181 100.894 703.023 103.504 702.804 106.136C702.609 108.774 701.366 111.224 699.352 112.94C697.339 114.656 694.722 115.495 692.087 115.269C689.453 115.074 687.007 113.834 685.292 111.826C683.577 109.818 682.735 107.208 682.953 104.577C683.123 101.921 684.356 99.4451 686.372 97.7081C688.388 95.9712 691.019 95.1192 693.671 95.3442V95.4432Z" fill="url(#paint0_linear_451_907)"/>
</g>
</g>
<defs>
<linearGradient id="paint0_linear_451_907" x1="396.5" y1="0" x2="396.5" y2="748.991" gradientUnits="userSpaceOnUse">
<stop stop-color="#3C0753"/>
<stop offset="1" stop-color="#910A67"/>
</linearGradient>
</defs>
</svg>
