<svg width="1000" height="996" viewBox="0 0 1000 996" fill="none" xmlns="http://www.w3.org/2000/svg">
<mask id="mask0_454_861" style="mask-type:luminance" maskUnits="userSpaceOnUse" x="104" y="74" width="793" height="749">
<path d="M897 74H104V822.942H897V74Z" fill="white"/>
</mask>
<g mask="url(#mask0_454_861)">
<mask id="mask1_454_861" style="mask-type:luminance" maskUnits="userSpaceOnUse" x="104" y="74" width="793" height="749">
<path d="M897 74H104V822.942H897V74Z" fill="white"/>
</mask>
<g mask="url(#mask1_454_861)">
<path fill-rule="evenodd" clip-rule="evenodd" d="M686.659 498.049L469.016 556.364L280.258 598.962L299.688 708.539L326.272 740.172L303.673 778.512C295.841 768.795 290.444 757.347 287.931 745.122L266.941 723.835L224.641 561.29L327.732 517.529C306.895 495.947 292.197 469.193 285.159 440.03L242.239 270.406C199.913 281.742 187.538 280.678 152.959 308.672C121.351 308.672 123.257 305.9 104 279.168C131.466 218.663 170.769 164.27 219.591 119.197C212.848 104.973 208.659 89.6747 207.215 74C287.551 136.698 358.725 210.322 418.67 292.732H684.307C711.379 292.007 737.854 300.762 759.157 317.484H789.849C842.772 317.634 885.638 360.499 885.787 413.422V555.498C885.778 571.143 889.629 586.548 897 600.348C847.662 595.709 809.914 554.361 809.774 504.806V363.424C809.643 352.522 800.873 343.698 789.973 343.498H781.013C789.944 359.732 794.483 378.016 794.181 396.541V531.885C794.142 556.527 802.428 580.46 817.695 599.804L808.017 822.991H763.464C764.025 811.901 767.973 801.249 774.775 792.472L766.978 612.922C729.656 583.254 701.773 543.366 686.733 498.123L686.659 498.049ZM685.099 599.729C673.496 579.099 669.967 554.895 675.199 531.81L679.753 509.088L582.899 535.053C592.422 564.663 609.222 591.411 631.759 612.848L603.468 792.398C595.125 800.882 589.151 811.405 586.141 822.917H630.695L685.099 599.729ZM406.913 624.877L437.655 791.878C431.895 801.14 429.459 812.087 430.749 822.917H475.303L460.451 669.456L455.749 568.493L396.344 581.908L407.111 625.001L406.913 624.877ZM203.329 169.443C200.696 169.639 198.249 170.878 196.534 172.886C194.819 174.894 193.977 177.504 194.196 180.136C194.391 182.774 195.634 185.224 197.648 186.94C199.661 188.656 202.278 189.495 204.913 189.269C207.547 189.074 209.993 187.834 211.708 185.826C213.423 183.818 214.265 181.208 214.047 178.577C213.877 175.921 212.644 173.445 210.628 171.708C208.612 169.971 205.981 169.119 203.329 169.344V169.443Z" fill="white"/>
</g>
</g>
</svg>
