<svg width="801" height="757" viewBox="0 0 801 757" fill="none" xmlns="http://www.w3.org/2000/svg">
<g filter="url(#filter0_d_457_875)">
<mask id="mask0_457_875" style="mask-type:luminance" maskUnits="userSpaceOnUse" x="4" y="0" width="793" height="749">
<path d="M797 0H3.99998V748.942H797V0Z" fill="white"/>
</mask>
<g mask="url(#mask0_457_875)">
<mask id="mask1_457_875" style="mask-type:luminance" maskUnits="userSpaceOnUse" x="4" y="0" width="793" height="749">
<path d="M797 0H3.99998V748.942H797V0Z" fill="white"/>
</mask>
<g mask="url(#mask1_457_875)">
<path fill-rule="evenodd" clip-rule="evenodd" d="M586.659 424.049L369.016 482.364L180.258 524.962L199.688 634.539L226.272 666.172L203.673 704.512C195.841 694.795 190.444 683.347 187.931 671.122L166.941 649.835L124.641 487.29L227.732 443.529C206.895 421.947 192.197 395.193 185.159 366.03L142.239 196.406C99.9134 207.742 87.5375 206.678 52.9592 234.672C21.3511 234.672 23.2569 231.9 3.99998 205.168C31.4661 144.663 70.769 90.2704 119.591 45.1969C112.848 30.9733 108.659 15.6747 107.215 0C187.551 62.6983 258.725 136.322 318.67 218.732H584.307C611.379 218.007 637.854 226.762 659.157 243.484H689.849C742.772 243.634 785.638 286.499 785.787 339.422V481.498C785.778 497.143 789.629 512.548 797 526.348C747.662 521.709 709.914 480.361 709.774 430.806V289.424C709.643 278.522 700.873 269.698 689.973 269.498H681.013C689.944 285.732 694.483 304.016 694.181 322.541V457.885C694.142 482.527 702.428 506.46 717.695 525.804L708.017 748.991H663.464C664.025 737.901 667.973 727.249 674.775 718.472L666.978 538.922C629.656 509.254 601.773 469.366 586.733 424.123L586.659 424.049ZM585.099 525.729C573.496 505.099 569.967 480.895 575.199 457.81L579.753 435.088L482.899 461.053C492.422 490.663 509.222 517.411 531.759 538.848L503.468 718.398C495.125 726.882 489.151 737.405 486.141 748.917H530.695L585.099 525.729ZM306.913 550.877L337.655 717.878C331.895 727.14 329.459 738.087 330.749 748.917H375.303L360.451 595.456L355.749 494.493L296.344 507.908L307.111 551.001L306.913 550.877ZM103.329 95.4432C100.696 95.6388 98.2494 96.8783 96.5343 98.8863C94.8191 100.894 93.9772 103.504 94.1958 106.136C94.3911 108.774 95.6342 111.224 97.6477 112.94C99.6611 114.656 102.278 115.495 104.913 115.269C107.547 115.074 109.993 113.834 111.708 111.826C113.423 109.818 114.265 107.208 114.047 104.577C113.877 101.921 112.644 99.4451 110.628 97.7081C108.612 95.9712 105.981 95.1192 103.329 95.3442V95.4432Z" fill="url(#paint0_linear_457_875)"/>
</g>
</g>
</g>
<defs>
<filter id="filter0_d_457_875" x="0" y="0" width="801" height="756.942" filterUnits="userSpaceOnUse" color-interpolation-filters="sRGB">
<feFlood flood-opacity="0" result="BackgroundImageFix"/>
<feColorMatrix in="SourceAlpha" type="matrix" values="0 0 0 0 0 0 0 0 0 0 0 0 0 0 0 0 0 0 127 0" result="hardAlpha"/>
<feMorphology radius="4" operator="dilate" in="SourceAlpha" result="effect1_dropShadow_457_875"/>
<feOffset dy="4"/>
<feComposite in2="hardAlpha" operator="out"/>
<feColorMatrix type="matrix" values="0 0 0 0 0 0 0 0 0 0 0 0 0 0 0 0 0 0 0.25 0"/>
<feBlend mode="normal" in2="BackgroundImageFix" result="effect1_dropShadow_457_875"/>
<feBlend mode="normal" in="SourceGraphic" in2="effect1_dropShadow_457_875" result="shape"/>
</filter>
<linearGradient id="paint0_linear_457_875" x1="400.5" y1="0" x2="400.5" y2="748.991" gradientUnits="userSpaceOnUse">
<stop stop-color="#3C0753"/>
<stop offset="1" stop-color="#910A67"/>
</linearGradient>
</defs>
</svg>
